<svg xmlns="http://www.w3.org/2000/svg" xmlns:xlink="http://www.w3.org/1999/xlink" width="500" zoomAndPan="magnify" viewBox="0 0 375 374.999991" height="500" preserveAspectRatio="xMidYMid meet" version="1.2"><defs><clipPath id="d8dcf33f40"><path d="M 82.90625 110.851562 L 169.039062 110.851562 L 169.039062 337.5 L 82.90625 337.5 Z M 82.90625 110.851562 "/></clipPath><clipPath id="e462a30d7e"><path d="M 166.785156 239.535156 L 196.972656 239.535156 L 196.972656 276.9375 L 166.785156 276.9375 Z M 166.785156 239.535156 "/></clipPath></defs><g id="577519502b"><rect x="0" width="375" y="0" height="374.999991" style="fill:#ffffff;fill-opacity:1;stroke:none;"/><rect x="0" width="375" y="0" height="374.999991" style="fill:#ffffff;fill-opacity:1;stroke:none;"/><g style="fill:#3d3b3a;fill-opacity:1;"><g transform="translate(133.642413, 263.323624)"><path style="stroke:none" d="M 11.375 0 L 11.375 -2.890625 C 14.789062 -3.929688 17.128906 -6.160156 18.390625 -9.578125 C 19.648438 -12.992188 20.28125 -19.238281 20.28125 -28.3125 L 20.28125 -127.71875 C 20.28125 -136.925781 19.648438 -143.203125 18.390625 -146.546875 C 17.128906 -149.890625 14.789062 -152.082031 11.375 -153.125 L 11.375 -156.015625 L 116.34375 -156.015625 L 118.359375 -132.625 L 115.90625 -131.953125 C 112.1875 -139.378906 107.578125 -144.648438 102.078125 -147.765625 C 96.585938 -150.890625 88.566406 -152.453125 78.015625 -152.453125 L 38.5625 -152.453125 L 38.5625 -87.15625 L 65.078125 -87.15625 C 73.546875 -87.15625 80.117188 -87.710938 84.796875 -88.828125 C 89.484375 -89.941406 92.90625 -91.613281 95.0625 -93.84375 C 97.21875 -96.070312 98.738281 -98.816406 99.625 -102.078125 L 102.3125 -102.078125 L 102.3125 -68.203125 L 99.625 -68.203125 C 98.738281 -71.617188 97.21875 -74.441406 95.0625 -76.671875 C 92.90625 -78.898438 89.484375 -80.609375 84.796875 -81.796875 C 80.117188 -82.984375 73.546875 -83.578125 65.078125 -83.578125 L 38.5625 -83.578125 L 38.5625 -28.3125 C 38.5625 -19.238281 39.191406 -12.992188 40.453125 -9.578125 C 41.710938 -6.160156 44.050781 -3.929688 47.46875 -2.890625 L 47.46875 0 Z M 11.375 0 "/></g></g><g clip-rule="nonzero" clip-path="url(#d8dcf33f40)"><path style=" stroke:none;fill-rule:nonzero;fill:#ffffff;fill-opacity:1;" d="M 82.90625 110.851562 L 169.039062 110.851562 L 169.039062 337.621094 L 82.90625 337.621094 Z M 82.90625 110.851562 "/></g><g style="fill:#3d3b3a;fill-opacity:1;"><g transform="translate(142.976772, 115.897843)"><path style="stroke:none" d="M 0 4.296875 L 0 1.625 L 12.84375 1.625 L 12.84375 8.984375 L 10.625 8.984375 L 10.625 4.296875 L 7.296875 4.296875 L 7.296875 8.65625 L 5.078125 8.65625 L 5.078125 4.296875 Z M 0 4.296875 "/></g></g><g style="fill:#3d3b3a;fill-opacity:1;"><g transform="translate(142.976772, 125.230327)"><path style="stroke:none" d="M 0 1.625 L 12.84375 1.625 L 12.84375 4.34375 L 2.25 4.34375 L 2.25 9.546875 L 0 9.546875 Z M 0 1.625 "/></g></g><g style="fill:#3d3b3a;fill-opacity:1;"><g transform="translate(142.976772, 134.852668)"><path style="stroke:none" d="M 0 9.484375 L 3.0625 8.546875 L 3.0625 3.875 L 0 2.9375 L 0 0 L 12.90625 4.53125 L 12.90625 7.859375 L 0 12.421875 Z M 5.34375 7.90625 L 8.328125 6.96875 C 8.523438 6.90625 8.78125 6.828125 9.09375 6.734375 C 9.414062 6.640625 9.738281 6.539062 10.0625 6.4375 C 10.382812 6.34375 10.664062 6.269531 10.90625 6.21875 C 10.664062 6.15625 10.367188 6.070312 10.015625 5.96875 C 9.660156 5.863281 9.320312 5.765625 9 5.671875 C 8.6875 5.578125 8.460938 5.507812 8.328125 5.46875 L 5.34375 4.546875 Z M 5.34375 7.90625 "/></g></g><g style="fill:#3d3b3a;fill-opacity:1;"><g transform="translate(142.976772, 146.723543)"><path style="stroke:none" d="M 0 1.625 L 12.84375 1.625 L 12.84375 4.34375 L 0 4.34375 Z M 0 1.625 "/></g></g><g style="fill:#3d3b3a;fill-opacity:1;"><g transform="translate(142.976772, 152.138658)"><path style="stroke:none" d="M 12.84375 5.359375 C 12.84375 6.523438 12.703125 7.488281 12.421875 8.25 C 12.140625 9.007812 11.710938 9.570312 11.140625 9.9375 C 10.578125 10.3125 9.863281 10.5 9 10.5 C 8.414062 10.5 7.898438 10.382812 7.453125 10.15625 C 7.015625 9.9375 6.644531 9.644531 6.34375 9.28125 C 6.039062 8.914062 5.789062 8.523438 5.59375 8.109375 L 0 11.890625 L 0 8.859375 L 4.9375 5.796875 L 4.9375 4.34375 L 0 4.34375 L 0 1.625 L 12.84375 1.625 Z M 10.625 5.171875 L 10.625 4.34375 L 7.140625 4.34375 L 7.140625 5.21875 C 7.140625 6.125 7.289062 6.769531 7.59375 7.15625 C 7.894531 7.550781 8.34375 7.75 8.9375 7.75 C 9.539062 7.75 9.972656 7.535156 10.234375 7.109375 C 10.492188 6.691406 10.625 6.046875 10.625 5.171875 Z M 10.625 5.171875 "/></g></g><g style="fill:#3d3b3a;fill-opacity:1;"><g transform="translate(142.976772, 163.473745)"><path style="stroke:none" d="M 0 9.015625 L 0 1.625 L 12.84375 1.625 L 12.84375 9.015625 L 10.625 9.015625 L 10.625 4.34375 L 7.796875 4.34375 L 7.796875 8.6875 L 5.5625 8.6875 L 5.5625 4.34375 L 2.25 4.34375 L 2.25 9.015625 Z M 0 9.015625 "/></g></g><g style="fill:#3d3b3a;fill-opacity:1;"><g transform="translate(142.976772, 173.008252)"><path style="stroke:none" d=""/></g></g><g style="fill:#3d3b3a;fill-opacity:1;"><g transform="translate(142.976772, 177.140999)"><path style="stroke:none" d="M 0 4.296875 L 0 1.625 L 12.84375 1.625 L 12.84375 8.984375 L 10.625 8.984375 L 10.625 4.296875 L 7.296875 4.296875 L 7.296875 8.65625 L 5.078125 8.65625 L 5.078125 4.296875 Z M 0 4.296875 "/></g></g><g style="fill:#3d3b3a;fill-opacity:1;"><g transform="translate(142.976772, 186.473484)"><path style="stroke:none" d="M 12.84375 5.359375 C 12.84375 6.523438 12.703125 7.488281 12.421875 8.25 C 12.140625 9.007812 11.710938 9.570312 11.140625 9.9375 C 10.578125 10.3125 9.863281 10.5 9 10.5 C 8.414062 10.5 7.898438 10.382812 7.453125 10.15625 C 7.015625 9.9375 6.644531 9.644531 6.34375 9.28125 C 6.039062 8.914062 5.789062 8.523438 5.59375 8.109375 L 0 11.890625 L 0 8.859375 L 4.9375 5.796875 L 4.9375 4.34375 L 0 4.34375 L 0 1.625 L 12.84375 1.625 Z M 10.625 5.171875 L 10.625 4.34375 L 7.140625 4.34375 L 7.140625 5.21875 C 7.140625 6.125 7.289062 6.769531 7.59375 7.15625 C 7.894531 7.550781 8.34375 7.75 8.9375 7.75 C 9.539062 7.75 9.972656 7.535156 10.234375 7.109375 C 10.492188 6.691406 10.625 6.046875 10.625 5.171875 Z M 10.625 5.171875 "/></g></g><g style="fill:#3d3b3a;fill-opacity:1;"><g transform="translate(142.976772, 197.80857)"><path style="stroke:none" d="M 0 9.484375 L 3.0625 8.546875 L 3.0625 3.875 L 0 2.9375 L 0 0 L 12.90625 4.53125 L 12.90625 7.859375 L 0 12.421875 Z M 5.34375 7.90625 L 8.328125 6.96875 C 8.523438 6.90625 8.78125 6.828125 9.09375 6.734375 C 9.414062 6.640625 9.738281 6.539062 10.0625 6.4375 C 10.382812 6.34375 10.664062 6.269531 10.90625 6.21875 C 10.664062 6.15625 10.367188 6.070312 10.015625 5.96875 C 9.660156 5.863281 9.320312 5.765625 9 5.671875 C 8.6875 5.578125 8.460938 5.507812 8.328125 5.46875 L 5.34375 4.546875 Z M 5.34375 7.90625 "/></g></g><g style="fill:#3d3b3a;fill-opacity:1;"><g transform="translate(142.976772, 209.679445)"><path style="stroke:none" d="M 7.21875 6.5 L 7.21875 11.59375 L 0.546875 11.59375 C 0.328125 10.914062 0.148438 10.210938 0.015625 9.484375 C -0.109375 8.765625 -0.171875 7.941406 -0.171875 7.015625 C -0.171875 5.742188 0.078125 4.660156 0.578125 3.765625 C 1.085938 2.878906 1.832031 2.203125 2.8125 1.734375 C 3.800781 1.273438 5.007812 1.046875 6.4375 1.046875 C 7.789062 1.046875 8.957031 1.304688 9.9375 1.828125 C 10.925781 2.347656 11.6875 3.101562 12.21875 4.09375 C 12.757812 5.09375 13.03125 6.316406 13.03125 7.765625 C 13.03125 8.441406 12.957031 9.109375 12.8125 9.765625 C 12.664062 10.429688 12.476562 11.035156 12.25 11.578125 L 10.0625 10.671875 C 10.257812 10.273438 10.425781 9.820312 10.5625 9.3125 C 10.695312 8.8125 10.765625 8.289062 10.765625 7.75 C 10.765625 6.957031 10.582031 6.269531 10.21875 5.6875 C 9.851562 5.101562 9.34375 4.648438 8.6875 4.328125 C 8.039062 4.003906 7.273438 3.84375 6.390625 3.84375 C 5.554688 3.84375 4.8125 3.957031 4.15625 4.1875 C 3.507812 4.414062 3.003906 4.773438 2.640625 5.265625 C 2.273438 5.765625 2.09375 6.410156 2.09375 7.203125 C 2.09375 7.585938 2.109375 7.910156 2.140625 8.171875 C 2.179688 8.441406 2.222656 8.695312 2.265625 8.9375 L 4.953125 8.9375 L 4.953125 6.5 Z M 7.21875 6.5 "/></g></g><g style="fill:#3d3b3a;fill-opacity:1;"><g transform="translate(142.976772, 222.165155)"><path style="stroke:none" d="M 12.84375 5.359375 C 12.84375 6.523438 12.703125 7.488281 12.421875 8.25 C 12.140625 9.007812 11.710938 9.570312 11.140625 9.9375 C 10.578125 10.3125 9.863281 10.5 9 10.5 C 8.414062 10.5 7.898438 10.382812 7.453125 10.15625 C 7.015625 9.9375 6.644531 9.644531 6.34375 9.28125 C 6.039062 8.914062 5.789062 8.523438 5.59375 8.109375 L 0 11.890625 L 0 8.859375 L 4.9375 5.796875 L 4.9375 4.34375 L 0 4.34375 L 0 1.625 L 12.84375 1.625 Z M 10.625 5.171875 L 10.625 4.34375 L 7.140625 4.34375 L 7.140625 5.21875 C 7.140625 6.125 7.289062 6.769531 7.59375 7.15625 C 7.894531 7.550781 8.34375 7.75 8.9375 7.75 C 9.539062 7.75 9.972656 7.535156 10.234375 7.109375 C 10.492188 6.691406 10.625 6.046875 10.625 5.171875 Z M 10.625 5.171875 "/></g></g><g style="fill:#3d3b3a;fill-opacity:1;"><g transform="translate(142.976772, 233.500241)"><path style="stroke:none" d="M 0 9.484375 L 3.0625 8.546875 L 3.0625 3.875 L 0 2.9375 L 0 0 L 12.90625 4.53125 L 12.90625 7.859375 L 0 12.421875 Z M 5.34375 7.90625 L 8.328125 6.96875 C 8.523438 6.90625 8.78125 6.828125 9.09375 6.734375 C 9.414062 6.640625 9.738281 6.539062 10.0625 6.4375 C 10.382812 6.34375 10.664062 6.269531 10.90625 6.21875 C 10.664062 6.15625 10.367188 6.070312 10.015625 5.96875 C 9.660156 5.863281 9.320312 5.765625 9 5.671875 C 8.6875 5.578125 8.460938 5.507812 8.328125 5.46875 L 5.34375 4.546875 Z M 5.34375 7.90625 "/></g></g><g style="fill:#3d3b3a;fill-opacity:1;"><g transform="translate(142.976772, 245.371116)"><path style="stroke:none" d="M 0 13.015625 L 0 9.546875 L 9.71875 3.96875 L 9.71875 3.890625 C 9.3125 3.910156 8.90625 3.925781 8.5 3.9375 C 8.09375 3.957031 7.679688 3.976562 7.265625 4 C 6.859375 4.019531 6.453125 4.035156 6.046875 4.046875 L 0 4.046875 L 0 1.625 L 12.84375 1.625 L 12.84375 5.046875 L 3.21875 10.640625 L 3.21875 10.703125 C 3.625 10.679688 4.019531 10.660156 4.40625 10.640625 C 4.800781 10.628906 5.191406 10.613281 5.578125 10.59375 C 5.972656 10.582031 6.367188 10.570312 6.765625 10.5625 L 12.84375 10.5625 L 12.84375 13.015625 Z M 0 13.015625 "/></g></g><g style="fill:#3d3b3a;fill-opacity:1;"><g transform="translate(142.976772, 259.455393)"><path style="stroke:none" d="M 10.765625 7.078125 C 10.765625 6.554688 10.660156 6.09375 10.453125 5.6875 C 10.253906 5.289062 9.960938 4.953125 9.578125 4.671875 C 9.203125 4.398438 8.742188 4.191406 8.203125 4.046875 C 7.671875 3.910156 7.066406 3.84375 6.390625 3.84375 C 5.484375 3.84375 4.707031 3.957031 4.0625 4.1875 C 3.425781 4.414062 2.9375 4.765625 2.59375 5.234375 C 2.257812 5.710938 2.09375 6.328125 2.09375 7.078125 C 2.09375 7.597656 2.148438 8.117188 2.265625 8.640625 C 2.378906 9.171875 2.546875 9.742188 2.765625 10.359375 L 0.484375 10.359375 C 0.242188 9.785156 0.078125 9.222656 -0.015625 8.671875 C -0.117188 8.117188 -0.171875 7.503906 -0.171875 6.828125 C -0.171875 5.492188 0.0976562 4.398438 0.640625 3.546875 C 1.191406 2.703125 1.960938 2.070312 2.953125 1.65625 C 3.941406 1.25 5.09375 1.046875 6.40625 1.046875 C 7.375 1.046875 8.265625 1.175781 9.078125 1.4375 C 9.890625 1.707031 10.585938 2.09375 11.171875 2.59375 C 11.765625 3.101562 12.222656 3.734375 12.546875 4.484375 C 12.867188 5.234375 13.03125 6.097656 13.03125 7.078125 C 13.03125 7.710938 12.945312 8.347656 12.78125 8.984375 C 12.625 9.628906 12.40625 10.25 12.125 10.84375 L 9.921875 9.953125 C 10.140625 9.472656 10.332031 8.988281 10.5 8.5 C 10.675781 8.019531 10.765625 7.546875 10.765625 7.078125 Z M 10.765625 7.078125 "/></g></g><g style="fill:#3d3b3a;fill-opacity:1;"><g transform="translate(142.976772, 270.377668)"><path style="stroke:none" d="M 0 9.015625 L 0 1.625 L 12.84375 1.625 L 12.84375 9.015625 L 10.625 9.015625 L 10.625 4.34375 L 7.796875 4.34375 L 7.796875 8.6875 L 5.5625 8.6875 L 5.5625 4.34375 L 2.25 4.34375 L 2.25 9.015625 Z M 0 9.015625 "/></g></g><g clip-rule="nonzero" clip-path="url(#e462a30d7e)"><path style=" stroke:none;fill-rule:nonzero;fill:#ffffff;fill-opacity:1;" d="M 166.785156 276.9375 L 166.785156 239.558594 L 196.972656 239.558594 L 196.972656 276.9375 Z M 166.785156 276.9375 "/></g></g></svg>